<?xml version="1.0" standalone="no"?>
<!DOCTYPE svg PUBLIC "-//W3C//DTD SVG 20010904//EN"
 "http://www.w3.org/TR/2001/REC-SVG-20010904/DTD/svg10.dtd">
<svg version="1.0" xmlns="http://www.w3.org/2000/svg"
 width="776.000000pt" height="776.000000pt" viewBox="0 0 776.000000 776.000000"
 preserveAspectRatio="xMidYMid meet">
<metadata>
Created by potrace 1.11, written by Peter Selinger 2001-2013
</metadata>
<g transform="translate(0.000000,776.000000) scale(0.100000,-0.100000)"
fill="#000000" stroke="none">
<path d="M3921 7680 c-7 -4 -23 -5 -37 -2 -24 4 -97 -22 -120 -43 -6 -5 -39
-35 -74 -65 -35 -30 -72 -63 -82 -72 -10 -10 -22 -18 -28 -18 -5 0 -10 -4 -10
-9 0 -5 -33 -35 -72 -67 -40 -32 -75 -60 -78 -63 -13 -15 -278 -223 -320 -251
-40 -27 -125 -89 -141 -102 -9 -7 -23 -17 -32 -23 -44 -27 -164 -111 -175
-122 -8 -7 -17 -11 -22 -8 -5 3 -10 1 -12 -4 -4 -11 -194 -131 -207 -131 -5 0
-11 -4 -13 -8 -6 -16 -486 -273 -518 -277 -3 -1 -23 -9 -45 -19 -69 -31 -259
-105 -270 -106 -3 0 -22 -7 -43 -16 -20 -8 -44 -17 -52 -19 -8 -2 -63 -17
-122 -34 -60 -16 -108 -27 -108 -25 0 3 -8 0 -18 -5 -11 -6 -41 -13 -68 -17
-27 -3 -58 -8 -69 -10 -47 -10 -74 -13 -140 -19 -114 -10 -192 -60 -237 -154
-20 -41 -22 -61 -22 -191 1 -127 10 -385 14 -385 1 0 3 -29 6 -64 2 -36 6 -83
9 -105 3 -23 7 -66 10 -96 11 -111 13 -136 19 -165 3 -16 7 -51 10 -77 3 -26
8 -64 12 -85 12 -85 15 -99 19 -123 2 -14 7 -41 9 -60 3 -19 8 -45 10 -56 2
-12 7 -37 10 -55 3 -19 10 -59 16 -89 7 -30 14 -68 16 -85 3 -16 9 -43 14 -59
6 -15 7 -32 5 -36 -3 -5 -1 -11 5 -15 6 -4 8 -10 5 -15 -3 -5 -1 -19 4 -33 5
-13 12 -37 15 -53 3 -16 8 -41 11 -56 4 -20 1 -28 -8 -28 -23 0 -93 -52 -126
-93 -27 -35 -56 -109 -92 -237 -7 -25 -13 -47 -14 -50 -1 -3 -10 -32 -20 -65
-10 -33 -20 -64 -21 -70 -2 -5 -5 -19 -8 -30 -3 -11 -26 -87 -52 -170 -25 -82
-50 -163 -54 -180 -10 -38 -80 -275 -87 -295 -3 -8 -7 -19 -9 -25 -1 -5 -19
-64 -39 -130 -20 -66 -37 -124 -39 -130 -1 -5 -10 -37 -20 -70 -10 -33 -24
-80 -31 -105 -7 -25 -20 -69 -29 -98 -9 -28 -22 -73 -30 -100 -8 -26 -31 -101
-51 -167 -20 -66 -38 -127 -40 -135 -2 -8 -11 -41 -20 -74 -22 -78 -14 -164
19 -221 29 -48 112 -125 136 -125 9 0 22 -6 28 -12 10 -10 201 -13 875 -15
474 -1 878 -2 897 -3 31 -1 41 -9 82 -63 85 -113 130 -167 242 -292 80 -91
400 -415 409 -415 3 0 23 -17 44 -38 21 -20 61 -55 88 -77 27 -22 57 -47 66
-55 10 -8 28 -24 40 -35 33 -29 255 -197 284 -215 13 -8 64 -43 114 -78 51
-34 96 -62 100 -62 5 0 11 -3 13 -8 4 -9 87 -62 148 -94 66 -35 165 -33 240 5
96 50 110 58 110 68 0 5 5 9 10 9 13 0 184 110 188 121 2 5 8 9 14 9 10 0 273
195 347 257 275 231 494 444 694 678 52 61 69 81 95 114 15 18 34 41 42 51 8
9 26 32 40 50 14 18 32 42 41 53 15 20 30 20 905 21 l889 1 52 23 c74 34 143
112 159 181 20 80 13 124 -51 331 -14 47 -27 93 -30 102 -2 10 -20 70 -40 135
-33 104 -40 128 -48 168 -2 6 -8 24 -14 40 -10 25 -19 54 -39 130 -2 6 -12 42
-24 80 -12 39 -30 99 -40 135 -30 102 -77 261 -93 310 -8 25 -20 65 -27 90 -7
25 -16 56 -21 70 -12 36 -62 203 -65 215 -1 6 -14 49 -28 98 -14 48 -37 126
-51 175 -14 48 -29 94 -32 102 -3 8 -8 23 -9 32 -12 59 -80 136 -146 165 -21
9 -38 23 -38 30 0 7 9 53 19 101 11 48 22 99 25 115 3 15 9 39 12 55 3 15 7
38 9 52 2 14 5 25 6 25 1 0 3 9 5 20 1 11 5 31 8 45 3 13 8 40 11 60 3 20 7
45 9 57 9 42 18 99 21 128 2 17 9 62 15 100 6 39 13 90 16 115 3 25 7 59 10
75 3 17 7 55 10 85 2 30 6 71 9 90 4 32 8 82 21 245 13 156 14 481 1 515 -38
109 -119 172 -237 185 -100 10 -135 15 -156 19 -12 2 -38 7 -59 10 -89 15
-349 86 -387 107 -10 5 -25 9 -33 9 -8 0 -23 4 -33 9 -9 5 -42 19 -72 31 -30
11 -65 25 -77 31 -13 5 -33 13 -45 18 -73 29 -320 149 -332 162 -6 5 -18 9
-28 9 -10 0 -18 4 -18 9 0 5 -17 16 -37 25 -21 9 -59 29 -84 44 -25 15 -75 44
-110 65 -94 55 -90 53 -269 171 -144 94 -295 199 -310 216 -3 3 -23 17 -45 32
-22 15 -52 38 -67 50 -14 13 -36 30 -48 38 -12 8 -28 20 -34 25 -6 6 -31 26
-56 45 -43 34 -81 64 -104 85 -6 6 -51 44 -101 85 -49 41 -112 96 -140 122
-59 55 -91 79 -125 95 -41 19 -97 31 -109 23z"/>
</g>
</svg>
